<?xml version="1.0" encoding="utf-8"?>
<!-- Generator: Adobe Illustrator 23.0.3, SVG Export Plug-In . SVG Version: 6.00 Build 0)  -->
<svg version="1.1" id="Layer_1" xmlns="http://www.w3.org/2000/svg" xmlns:xlink="http://www.w3.org/1999/xlink" x="0px" y="0px"
	 viewBox="0 0 38.6 43.4" style="enable-background:new 0 0 38.6 43.4;" xml:space="preserve">
<style type="text/css">
	.st0{fill:#F79421;}
	.st1{fill:#F26725;}
	.st2{fill:#EC2227;}
	.st3{fill:#B4B4B4;}
</style>
<g>
	<polygon class="st0" points="7.4,7.3 7.4,13.8 13,17 18.6,13.8 18.6,7.3 13,4.1 	"/>
	<polygon class="st0" points="19.6,7.3 19.6,13.8 25.2,17 30.9,13.8 30.9,7.3 25.2,4.1 	"/>
	<polygon class="st1" points="1.3,17.8 1.3,24.3 6.9,27.6 12.5,24.3 12.5,17.8 6.9,14.6 	"/>
	<polygon class="st1" points="13.5,17.8 13.5,24.3 19.1,27.6 24.8,24.3 24.8,17.8 19.1,14.6 	"/>
	<polygon class="st1" points="25.7,17.8 25.7,24.3 31.3,27.6 37,24.3 37,17.8 31.3,14.6 	"/>
	<polygon class="st2" points="7.4,28.2 7.4,34.7 13,38 18.6,34.7 18.6,28.2 13,25 	"/>
	<polygon class="st2" points="19.6,28.2 19.6,34.7 25.2,38 30.9,34.7 30.9,28.2 25.2,25 	"/>
	<g>
		<path class="st3" d="M24.6,6.6C23.3,2.3,21.4,0,19.3,0c-1.7,0-3.2,1.4-4.4,4.2L16,4.8c1-2.2,2.2-3.5,3.3-3.5c1.4,0,3,2.1,4.1,5.7
			c1.2,3.9,1.9,9.1,1.9,14.7s-0.7,10.8-1.9,14.7c-1.1,3.6-2.7,5.7-4.1,5.7c-1.3,0-2.6-1.7-3.7-4.7l-1.1,0.7c1.3,3.5,3,5.3,4.9,5.3
			c2.1,0,4-2.3,5.3-6.6c1.3-4,2-9.4,2-15.1C26.6,16,25.9,10.7,24.6,6.6"/>
		<path class="st3" d="M35,24.6c-2.9-3.1-7.1-6.4-12.1-9.3C18,12.5,13,10.4,8.8,9.5c-4.4-1-7.3-0.5-8.4,1.3
			c-0.8,1.4-0.4,3.4,1.3,5.8L2.9,16c-1.3-2-1.8-3.6-1.3-4.5c0.7-1.2,3.3-1.5,7-0.7c4,0.9,8.9,2.9,13.7,5.7s9,6,11.8,9
			c2.5,2.8,3.6,5.2,2.9,6.4c-0.6,1.1-2.6,1.4-5.5,1v1.3c0.8,0.1,1.6,0.2,2.2,0.2c2.2,0,3.7-0.6,4.4-1.8C39.2,30.7,38.1,28,35,24.6"
			/>
		<path class="st3" d="M6.6,33c-2.6,0.3-4.4,0-4.9-1c-0.7-1.2,0.4-3.6,2.9-6.4c2.8-3,7-6.2,11.8-9s9.7-4.8,13.7-5.7
			c1.4-0.3,2.7-0.5,3.7-0.5c1.7,0,2.8,0.4,3.3,1.2c0.6,1,0,2.7-1.5,4.7l1.1,0.7c1.8-2.5,2.3-4.5,1.5-6c-1.1-1.8-4-2.3-8.4-1.3
			c-4.1,0.9-9.1,3-14.1,5.8c-4.9,2.8-9.2,6.1-12.1,9.3c-3.1,3.4-4.1,6.1-3.1,7.9c0.7,1.2,2.2,1.8,4.4,1.8c0.5,0,1.1,0,1.7-0.1
			C6.6,34.4,6.6,33,6.6,33z"/>
	</g>
</g>
</svg>
